# AST/ASF file generated using VICON BodyLanguage
# -----------------------------------------------
:version 1.10
:name VICON
:units
  mass 1.0
  length 0.45
  angle deg
:documentation
   .ast/.asf automatically generated from VICON data using
   VICON BodyBuilder and BodyLanguage model FoxedUp or BRILLIANT.MOD
:root
   order TX TY TZ RX RY RZ
   axis XYZ
   position 0 0 0  
   orientation 0 0 0 
:bonedata
  begin
     id 1 
     name lhipjoint
     direction 0.611804 -0.747784 0.257906 
     length 2.29243 
     axis 0 0 0  XYZ
  end
  begin
     id 2 
     name lfemur
     direction 0.34202 -0.939693 0  
     length 7.31159  
     axis 0 0 20  XYZ
    dof rx ry rz
    limits (-160.0 20.0)
           (-70.0 70.0)
           (-60.0 70.0)
  end
  begin
     id 3 
     name ltibia
     direction 0.34202 -0.939693 0   
     length 7.33391   
     axis 0 0 20   XYZ
    dof rx
    limits (-10.0 170.0)
  end
  begin
     id 4 
     name lfoot
     direction 0.122263 -0.335914 0.933924   
     length 1.76083   
     axis -90 7.62852e-016 20   XYZ
    dof rx rz
    limits (-45.0 90.0)
           (-70.0 20.0)
  end
  begin
     id 5 
     name ltoes
     direction 1.53533e-011 -4.2177e-011 1   
     length 0.879206   
     axis -90 7.62852e-016 20   XYZ
    dof rx
    limits (-90.0 20.0)
  end
  begin
     id 6 
     name rhipjoint
     direction -0.646469 -0.721248 0.248754   
     length 2.37677  
     axis 0 0 0  XYZ 
  end
  begin
     id 7 
     name rfemur
     direction -0.34202 -0.939693 0   
     length 7.18623   
     axis 0 0 -20   XYZ
    dof rx ry rz
    limits (-160.0 20.0)
           (-70.0 70.0)
           (-70.0 60.0)
  end
  begin
     id 8 
     name rtibia
     direction -0.34202 -0.939693 0   
     length 7.36567   
     axis 0 0 -20   XYZ
    dof rx
    limits (-10.0 170.0)
 end
 begin
     id 9 
     name rfoot
     direction -0.126681 -0.348054 0.928876   
     length 1.71902  
     axis -90 -7.62852e-016 -20   XYZ
    dof rx rz
    limits (-45.0 90.0)
           (-20.0 70.0)
  end
  begin
     id 10 
     name rtoes
     direction -1.53551e-011 -4.21898e-011 1   
     length 0.857792   
     axis -90 -7.62852e-016 -20   XYZ
    dof rx
    limits (-90.0 20.0)
  end
  begin
     id 11 
     name lowerback
     direction 0.0106509 0.999778 0.0181844   
     length 2.07668   
     axis 0 0 0   XYZ
    dof rx ry rz
    limits (-20.0 45.0)
           (-30.0 30.0)
           (-30.0 30.0)
  end
  begin
     id 12 
     name upperback
     direction -0.00456018 0.999989 -0.000590935   
     length 2.08011   
     axis 0 0 0   XYZ
    dof rx ry rz
    limits (-20.0 45.0)
           (-30.0 30.0)
           (-30.0 30.0)
  end
  begin
     id 13 
     name thorax
     direction -0.00910382 0.999916 -0.00923765   
     length 2.07397   
     axis 0 0 0   XYZ
    dof rx ry rz
    limits (-20.0 45.0)
           (-30.0 30.0)
           (-30.0 30.0)
  end
  begin
     id 14 
     name lowerneck
     direction 0.00171967 0.99778 0.0665733   
     length 1.67556   
     axis 0 0 0   XYZ
    dof rx ry rz
    limits (-20.0 45.0)
           (-30.0 30.0)
           (-30.0 30.0)
  end
  begin
     id 15 
     name upperneck
     direction -0.0143166 0.991302 -0.130828   
     length 1.68462   
     axis 0 0 0   XYZ
    dof rx ry rz
    limits (-20.0 45.0)
           (-30.0 30.0)
           (-30.0 30.0)
  end
  begin
     id 16
     name head
     direction -0.00606378 0.998665 -0.0512995  
     length 1.69269  
     axis 0 0 0   XYZ
    dof rx ry rz
    limits (-20.0 45.0)
           (-30.0 30.0)
           (-30.0 30.0)
  end
  begin
     id 17 
     name lclavicle
     direction 0.9638 0.179341 0.197297  
     length 4.12888  
     axis 0 0 0   XYZ
    dof ry rz
    limits (-20.0 10.0)
           (0.0 20.0)
  end
  begin
     id 18 
     name lhumerus
     direction 1 -4.48972e-011 -2.47351e-027   
     length 5.01834   
     axis -180 -30 -90   XYZ
    dof rx ry rz
    limits (-60.0 90.0)
           (-90.0 90.0)
           (-90.0 90.0)
  end
  begin
     id 19
     name lradius
     direction 1 -4.48965e-011 1.51591e-026   
     length 3.4869   
     axis -180 -30 -90   XYZ
    dof rx
    limits (-10.0 170.0)
  end
  begin
     id 20
     name lwrist
     direction 1 -4.48957e-011 2.70032e-026   
     length 1.74345   
     axis -1.81515e-014 90 90   XYZ
    dof ry
    limits (-180.0 0.0)
 end
  begin
     id 21 
     name lhand
     direction 1 -4.48951e-011 5.40064e-026   
     length 0.76799   
     axis -3.44607e-014 90 90   XYZ
    dof rx rz
    limits (-90.0 90.0)
           (-45.0 45.0)
  end
  begin
     id 22 
     name lfingers
     direction 1 -4.48971e-011 1.08013e-025   
     length 0.619174   
     axis -6.89214e-014 90 90   XYZ
    dof rx
    limits (0.0 90.0)
  end
  begin
     id 23
     name lthumb
     direction 0.707107 -6.34931e-011 0.707107   
     length 0.889013   
     axis -90 45 2.85299e-015   XYZ
    dof rx rz
    limits (-45.0 45.0)
           (-45.0 45.0)
  end
  begin
     id 24 
     name rclavicle
     direction -0.961409 0.252588 0.109054   
     length 4.04305  
     axis 0 0 0   XYZ 
    dof ry rz
    limits (-10.0 20.0)
           (-20.0 0.0)
  end
  begin
     id 25 
     name rhumerus
     direction -1 -4.4897e-011 1.33872e-017  
     length 4.70164   
     axis -180 30 90   XYZ
    dof rx ry rz
    limits (-90.0 60.0)
           (-90.0 90.0)
           (-90.0 90.0)
  end
  begin
     id 26 
     name rradius
     direction -1 -4.48954e-011 1.83844e-026   
     length 3.49911   
     axis -180 30 90   XYZ
    dof rx
    limits (-10.0 170.0)
  end
  begin
     id 27 
     name rwrist
     direction -1 -4.49008e-011 2.70032e-026   
     length 1.74955   
     axis -1.81515e-014 -90 -90   XYZ
    dof ry
    limits (-180.0 0.0)
  end
  begin
     id 28
     name rhand
     direction -1 -4.48916e-011 5.40064e-026   
     length 0.739335   
     axis -3.44607e-014 -90 -90   XYZ
    dof rx rz
    limits (-90.0 90.0)
           (-45.0 45.0)
  end
  begin
     id 29
     name rfingers
     direction -1 -4.48987e-011 1.08013e-025   
     length 0.596071   
     axis -6.89214e-014 -90 -90   XYZ
    dof rx
    limits (0.0 90.0)
  end
  begin
     id 30
     name rthumb
     direction -0.707107 -6.34935e-011 0.707107   
     length 0.855843   
     axis -90 -45 -2.85299e-015   XYZ
    dof rx rz
    limits (-45.0 45.0)
           (-45.0 45.0)
  end
:hierarchy
  begin
    root lhipjoint rhipjoint lowerback
    lhipjoint lfemur
    lfemur ltibia
    ltibia lfoot
    lfoot ltoes
    rhipjoint rfemur
    rfemur rtibia
    rtibia rfoot
    rfoot rtoes
    lowerback upperback
    upperback thorax
    thorax lowerneck lclavicle rclavicle
    lowerneck upperneck
    upperneck head
    lclavicle lhumerus
    lhumerus lradius
    lradius lwrist
    lwrist lhand lthumb
    lhand lfingers
    rclavicle rhumerus
    rhumerus rradius
    rradius rwrist
    rwrist rhand rthumb
    rhand rfingers
  end

#!OML:ASF I:\salsa\salsa 7_09\Patient 1\Session 1\dancermale.ASF
:FULLY-SPECIFIED
:DEGREES
161
root -17.9417 17.6357 0.393088 76.8257 90.2972 64.3102
lowerback -12.8532 0.90722 2.88201
upperback -0.267469 0.811912 0.0287451
thorax 6.97862 0.506935 -1.44478
lowerneck -5.47799 -11.533 -5.9347
upperneck 8.88078 -15.4645 5.38243
head 4.42996 -7.55194 1.62714
rclavicle 3.77691e-015 9.14409e-015
rhumerus -46.8076 26.4472 -112.442
rradius 103.51
rwrist -3.06522
rhand -23.0405 5.4634
rfingers 7.12502
rthumb 3.40398 -24.4892
lclavicle 3.77691e-015 9.14409e-015
lhumerus -44.0498 -31.9282 114.194
lradius 105.003
lwrist 19.0654
lhand -19.6206 47.7666
lfingers 7.12502
lthumb 6.70606 77.6404
rfemur -13.6481 -1.85107 22.6844
rtibia 11.0431
rfoot -15.0797 -5.42419
rtoes 7.70784
lfemur -21.206 0.98915 -17.3956
ltibia 23.4815
lfoot -17.4328 8.75648
ltoes -8.44843
162
root -17.9253 17.6396 0.376484 78.3691 90.244 65.9678
lowerback -12.7922 0.86637 2.81495
upperback -0.228946 0.766377 0.0494949
thorax 6.98196 0.482083 -1.39385
lowerneck -5.47442 -11.4949 -5.97263
upperneck 8.84339 -15.4025 5.32736
head 4.41289 -7.52645 1.62281
rclavicle -2.98177e-016 8.54774e-015
rhumerus -46.7039 26.6643 -112.536
rradius 103.44
rwrist -3.21972
rhand -22.9251 5.67344
rfingers 7.12502
rthumb 3.5154 -24.2773
lclavicle -2.98177e-016 8.54774e-015
lhumerus -44.1032 -31.8849 113.907
lradius 105.057
lwrist 19.1303
lhand -19.4102 47.6618
lfingers 7.12502
lthumb 6.90918 77.529
rfemur -13.4125 -1.45005 22.541
rtibia 10.9976
rfoot -15.0762 -5.78468
rtoes 7.9403
lfemur -20.7069 0.728841 -17.4479
ltibia 22.9419
lfoot -17.366 8.76027
ltoes -8.73477
163
root -17.9111 17.6434 0.357327 88.9866 90.1675 76.717
lowerback -12.6397 0.871436 2.77319
upperback -0.228412 0.785262 0.0236342
thorax 6.89734 0.489033 -1.39565
lowerneck -5.52033 -11.4826 -5.64855
upperneck 8.85822 -15.3789 5.00206
head 4.3727 -7.52007 1.48283
rclavicle -1.56543e-015 -8.94531e-015
rhumerus -46.7309 26.6015 -112.766
rradius 103.401
rwrist -3.19639
rhand -22.749 5.97076
rfingers 7.12502
rthumb 3.68551 -23.9771
lclavicle -1.56543e-015 -8.94531e-015
lhumerus -44.3011 -31.9381 113.622
lradius 105.166
lwrist 19.1904
lhand -19.2769 47.5719
lfingers 7.12502
lthumb 7.03791 77.4349
rfemur -13.1935 -1.09391 22.3784
rtibia 10.9948
rfoot -15.0918 -6.07512
rtoes 8.00162
lfemur -20.2371 0.602563 -17.5366
ltibia 22.45
lfoot -17.2554 8.74356
ltoes -8.97067
164
root -17.8964 17.6475 0.334008 131.061 90.1011 118.975
lowerback -12.4539 0.902258 2.7844
upperback -0.208992 0.832812 -0.0315061
thorax 6.81672 0.51225 -1.45335
lowerneck -5.5741 -11.449 -5.47695
upperneck 8.86833 -15.3275 4.81364
head 4.35371 -7.49791 1.40525
rclavicle 1.59028e-015 -1.0138e-014
rhumerus -46.7969 26.2597 -112.953
rradius 103.447
rwrist -2.53844
rhand -22.1817 6.06765
rfingers 7.12502
rthumb 4.23331 -23.87
lclavicle 1.59028e-015 -1.0138e-014
lhumerus -44.5435 -32.0167 113.318
lradius 105.356
lwrist 19.2952
lhand -19.1828 47.5723
lfingers 7.12502
lthumb 7.12872 77.4322
rfemur -12.9412 -0.861961 22.1847
rtibia 11.013
rfoot -15.1521 -6.26415
rtoes 7.65957
lfemur -19.6945 0.864211 -17.6909
ltibia 21.9013
lfoot -17.1493 8.52362
ltoes -9.43826
165
root -17.8794 17.6518 0.311435 190.272 90.1969 178.298
lowerback -12.096 0.961651 2.89089
upperback -0.365808 0.921455 -0.169847
thorax 6.45686 0.555814 -1.64856
lowerneck -5.66546 -11.359 -5.08204
upperneck 9.07491 -15.1971 4.35307
head 4.35911 -7.43991 1.21573
rclavicle 5.91384e-015 -6.95746e-015
rhumerus -47.0968 25.9046 -113.369
rradius 103.556
rwrist -2.22492
rhand -22.0503 6.15876
rfingers 7.12502
rthumb 4.36021 -23.7764
lclavicle 5.91384e-015 -6.95746e-015
lhumerus -44.9983 -32.1022 113.014
lradius 105.653
lwrist 19.4816
lhand -18.9416 47.5788
lfingers 7.12502
lthumb 7.36154 77.4308
rfemur -12.7661 -0.765105 21.9885
rtibia 11.0261
rfoot -15.1722 -6.3077
rtoes 7.00023
lfemur -19.2411 1.4658 -17.8757
ltibia 21.3946
lfoot -17.1266 8.12766
ltoes -9.57601
166
root -17.8628 17.657 0.291433 201.241 90.3773 189.356
lowerback -11.7184 0.999558 2.95524
upperback -0.559944 0.987823 -0.284304
thorax 6.04564 0.585439 -1.79957
lowerneck -5.64554 -11.1952 -4.58696
upperneck 9.17843 -14.9728 3.85583
head 4.30151 -7.33777 1.01857
rclavicle 3.65267e-015 1.2921e-014
rhumerus -47.5069 25.7025 -113.869
rradius 103.762
rwrist -2.20599
rhand -22.1542 6.23013
rfingers 7.12502
rthumb 4.2599 -23.707
lclavicle 3.65267e-015 1.2921e-014
lhumerus -45.4831 -32.1196 112.698
lradius 106
lwrist 19.7088
lhand -18.7756 47.3417
lfingers 7.12502
lthumb 7.52173 77.188
rfemur -12.6082 -0.704457 21.8165
rtibia 11.0202
rfoot -15.1682 -6.29521
rtoes 6.51933
lfemur -18.7953 2.10415 -18.0394
ltibia 20.8718
lfoot -17.118 7.58734
ltoes -9.18892
167
root -17.8481 17.6614 0.269084 202.771 90.5428 190.995
lowerback -11.3208 1.04855 3.04177
upperback -0.739235 1.06458 -0.371199
thorax 5.64092 0.619942 -1.93302
lowerneck -5.64983 -10.9403 -4.2614
upperneck 9.25275 -14.6308 3.56862
head 4.26515 -7.1723 0.912428
rclavicle 3.45388e-015 2.5842e-015
rhumerus -47.8655 25.4693 -114.275
rradius 103.952
rwrist -2.20614
rhand -22.0985 6.57598
rfingers 7.12502
rthumb 4.31369 -23.3601
lclavicle 3.45388e-015 2.5842e-015
lhumerus -45.9188 -32.1686 112.436
lradius 106.284
lwrist 19.9471
lhand -18.733 46.941
lfingers 7.12502
lthumb 7.56288 76.7858
rfemur -12.4211 -0.589623 21.6594
rtibia 10.9935
rfoot -15.2135 -6.31409
rtoes 6.21238
lfemur -18.3085 2.67009 -18.188
ltibia 20.3028
lfoot -17.0812 6.99121
ltoes -8.9166
168
root -17.8362 17.6636 0.239117 203.05 90.7688 191.224
lowerback -11.1313 1.15158 3.21517
upperback -0.899047 1.19689 -0.474936
thorax 5.37997 0.685928 -2.12223
lowerneck -5.9323 -10.5576 -3.92753
upperneck 9.49246 -14.1079 3.21446
head 4.31506 -6.91471 0.775748
rclavicle -1.03741e-014 1.19271e-015
rhumerus -47.9734 25.3148 -114.509
rradius 104.009
rwrist -2.16957
rhand -21.916 6.80448
rfingers 7.12502
rthumb 4.48985 -23.1279
lclavicle -1.03741e-014 1.19271e-015
lhumerus -46.158 -32.3184 112.168
lradius 106.484
lwrist 20.1242
lhand -18.7613 46.6986
lfingers 7.12502
lthumb 7.53556 76.5444
rfemur -12.4659 -0.489014 21.4689
rtibia 11.0212
rfoot -15.2536 -6.27292
rtoes 5.69845
lfemur -18.0021 3.06122 -18.3857
ltibia 19.7279
lfoot -16.9478 6.69335
ltoes -9.176
169
root -17.8269 17.6656 0.20968 200.586 91.1657 188.581
lowerback -11.093 1.27066 3.35031
upperback -1.07098 1.35069 -0.563134
thorax 5.19244 0.762189 -2.26876
lowerneck -6.3031 -10.0306 -3.71028
upperneck 9.86162 -13.3977 3.01573
head 4.43564 -6.55794 0.704685
rclavicle 3.70236e-015 -2.5842e-015
rhumerus -48.0587 25.3812 -114.807
rradius 104.021
rwrist -2.08265
rhand -21.9398 6.81264
rfingers 7.12502
rthumb 4.46691 -23.1203
lclavicle 3.70236e-015 -2.5842e-015
lhumerus -46.2809 -32.3218 111.804
lradius 106.61
lwrist 20.2033
lhand -18.7928 46.5185
lfingers 7.12502
lthumb 7.50519 76.3653
rfemur -12.7296 -0.239209 21.2914
rtibia 11.1192
rfoot -15.2289 -6.25789
rtoes 5.17934
lfemur -17.8094 3.30394 -18.575
ltibia 19.1263
lfoot -16.6971 6.84897
ltoes -10.0073
170
root -17.8174 17.6691 0.179389 199.934 91.568 187.709
lowerback -11.1276 1.38382 3.45465
upperback -1.25774 1.49789 -0.633453
thorax 5.02946 0.834509 -2.3795
lowerneck -6.68415 -9.44437 -3.58929
upperneck 10.3416 -12.6273 3.05792
head 4.61544 -6.15961 0.720443
rclavicle 7.62836e-015 -7.05686e-015
rhumerus -48.1205 25.4277 -115.036
rradius 104.004
rwrist -2.03257
rhand -21.8558 7.04346
rfingers 7.12502
rthumb 4.54802 -22.8877
lclavicle 7.62836e-015 -7.05686e-015
lhumerus -46.3811 -32.263 111.469
lradius 106.687
lwrist 20.3459
lhand -18.7581 46.3115
lfingers 7.12502
lthumb 7.53868 76.1571
rfemur -13.0371 0.0143658 21.0996
rtibia 11.2156
rfoot -15.1682 -6.25054
rtoes 4.60281
lfemur -17.6688 3.37392 -18.7796
ltibia 18.5564
lfoot -16.4391 7.20227
ltoes -10.8168
